<svg xmlns="http://www.w3.org/2000/svg" xmlns:xlink="http://www.w3.org/1999/xlink" contentStyleType="text/css" data-diagram-type="DESCRIPTION" height="382px" preserveAspectRatio="none" style="width:1149px;height:382px;background:#FFFFFF;" version="1.1" viewBox="0 0 1149 382" width="1149px" zoomAndPan="magnify"><defs/><g><!--cluster ADAM Solution (Blocked)--><g class="cluster" data-entity="ADAM Solution .Blocked." data-source-line="4" data-uid="ent0002" id="cluster_ADAM Solution .Blocked."><path d="M8.5,48.44 L188.6836,48.44 A3.75,3.75 0 0 1 191.1836,50.94 L198.1836,70.9283 L440.5,70.9283 A2.5,2.5 0 0 1 443,73.4283 L443,373.31 A2.5,2.5 0 0 1 440.5,375.81 L8.5,375.81 A2.5,2.5 0 0 1 6,373.31 L6,50.94 A2.5,2.5 0 0 1 8.5,48.44" fill="none" style="stroke:#000000;stroke-width:1.5;"/><line style="stroke:#000000;stroke-width:1.5;" x1="6" x2="198.1836" y1="70.9283" y2="70.9283"/><text fill="#000000" font-family="sans-serif" font-size="14" font-weight="bold" lengthAdjust="spacing" textLength="179.1836" x="10" y="63.9752">ADAM Solution (Blocked)</text></g><!--cluster Local Solution (Implemented)--><g class="cluster" data-entity="Local Solution .Implemented." data-source-line="21" data-uid="ent0010" id="cluster_Local Solution .Implemented."><path d="M469.5,48.44 L680.8486,48.44 A3.75,3.75 0 0 1 683.3486,50.94 L690.3486,70.9283 L875.5,70.9283 A2.5,2.5 0 0 1 878,73.4283 L878,373.31 A2.5,2.5 0 0 1 875.5,375.81 L469.5,375.81 A2.5,2.5 0 0 1 467,373.31 L467,50.94 A2.5,2.5 0 0 1 469.5,48.44" fill="none" style="stroke:#000000;stroke-width:1.5;"/><line style="stroke:#000000;stroke-width:1.5;" x1="467" x2="690.3486" y1="70.9283" y2="70.9283"/><text fill="#000000" font-family="sans-serif" font-size="14" font-weight="bold" lengthAdjust="spacing" textLength="210.3486" x="471" y="63.9752">Local Solution (Implemented)</text></g><!--entity SageMaker1--><g class="entity" data-entity="SageMaker1" data-source-line="11" data-uid="ent0003" id="entity_SageMaker1"><rect fill="#E6FFE6" height="52.9766" rx="2.5" ry="2.5" style="stroke:#00AA00;stroke-width:0.5;" width="113.4268" x="22.29" y="91.68"/><text fill="#00AA00" font-family="sans-serif" font-size="14" lengthAdjust="spacing" textLength="73.3018" x="32.29" y="115.2152">SageMaker</text><text fill="#00AA00" font-family="sans-serif" font-size="14" lengthAdjust="spacing" textLength="93.4268" x="32.29" y="131.7034">Studio Access</text></g><!--entity URL1--><g class="entity" data-entity="URL1" data-source-line="12" data-uid="ent0004" id="entity_URL1"><rect fill="#E6FFE6" height="69.4648" rx="2.5" ry="2.5" style="stroke:#00AA00;stroke-width:0.5;" width="123.4414" x="170.28" y="83.44"/><text fill="#00AA00" font-family="sans-serif" font-size="14" lengthAdjust="spacing" textLength="96.9268" x="180.28" y="106.9752">Presigned URL</text><text fill="#00AA00" font-family="sans-serif" font-size="14" lengthAdjust="spacing" textLength="74.4365" x="180.28" y="123.4634">Generation</text><text fill="#00AA00" font-family="sans-serif" font-size="14" lengthAdjust="spacing" textLength="103.4414" x="180.28" y="139.9517">(~4500 tokens)</text></g><!--entity ADAM--><g class="entity" data-entity="ADAM" data-source-line="13" data-uid="ent0005" id="entity_ADAM"><rect fill="#E6FFE6" height="69.4648" rx="2.5" ry="2.5" style="stroke:#00AA00;stroke-width:0.5;" width="98.2334" x="328.88" y="83.44"/><text fill="#00AA00" font-family="sans-serif" font-size="14" lengthAdjust="spacing" textLength="41.8633" x="338.88" y="106.9752">ADAM</text><text fill="#00AA00" font-family="sans-serif" font-size="14" lengthAdjust="spacing" textLength="72.7754" x="338.88" y="123.4634">Processing</text><text fill="#00AA00" font-family="sans-serif" font-size="14" lengthAdjust="spacing" textLength="78.2334" x="338.88" y="139.9517">&#10060; FAILURE</text></g><!--entity Limit--><g class="entity" data-entity="Limit" data-source-line="14" data-uid="ent0006" id="entity_Limit"><rect fill="#E6FFE6" height="69.4648" rx="2.5" ry="2.5" style="stroke:#00AA00;stroke-width:0.5;" width="105.251" x="179.37" y="290.35"/><text fill="#00AA00" font-family="sans-serif" font-size="14" lengthAdjust="spacing" textLength="85.251" x="189.37" y="313.8852">LLM Context</text><text fill="#00AA00" font-family="sans-serif" font-size="14" lengthAdjust="spacing" textLength="33.8652" x="189.37" y="330.3734">Limit</text><text fill="#00AA00" font-family="sans-serif" font-size="14" lengthAdjust="spacing" textLength="64.3672" x="189.37" y="346.8617">Exceeded</text></g><!--entity LocalSetup2--><g class="entity" data-entity="LocalSetup2" data-source-line="28" data-uid="ent0011" id="entity_LocalSetup2"><rect fill="#E6FFE6" height="69.4648" rx="2.5" ry="2.5" style="stroke:#00AA00;stroke-width:0.5;" width="99.5566" x="483.22" y="83.44"/><text fill="#00AA00" font-family="sans-serif" font-size="14" lengthAdjust="spacing" textLength="77.5195" x="493.22" y="106.9752">Local Setup</text><text fill="#00AA00" font-family="sans-serif" font-size="14" lengthAdjust="spacing" textLength="79.5566" x="493.22" y="123.4634">Automation</text><text fill="#00AA00" font-family="sans-serif" font-size="14" lengthAdjust="spacing" textLength="77.7041" x="493.22" y="139.9517">(One-Click)</text></g><!--entity BrowserUse2--><g class="entity" data-entity="BrowserUse2" data-source-line="29" data-uid="ent0012" id="entity_BrowserUse2"><rect fill="#E6FFE6" height="69.4648" rx="2.5" ry="2.5" style="stroke:#00AA00;stroke-width:0.5;" width="106.5703" x="617.71" y="83.44"/><text fill="#00AA00" font-family="sans-serif" font-size="14" lengthAdjust="spacing" textLength="86.5703" x="627.71" y="106.9752">Browser-Use</text><text fill="#00AA00" font-family="sans-serif" font-size="14" lengthAdjust="spacing" textLength="46.751" x="627.71" y="123.4634">Web UI</text><text fill="#00AA00" font-family="sans-serif" font-size="14" lengthAdjust="spacing" textLength="74.5186" x="627.71" y="139.9517">Integration</text></g><!--entity JupyterLab2--><g class="entity" data-entity="JupyterLab2" data-source-line="30" data-uid="ent0013" id="entity_JupyterLab2"><rect fill="#E6FFE6" height="69.4648" rx="2.5" ry="2.5" style="stroke:#00AA00;stroke-width:0.5;" width="102.7109" x="759.64" y="83.44"/><text fill="#00AA00" font-family="sans-serif" font-size="14" lengthAdjust="spacing" textLength="71.9414" x="769.64" y="106.9752">JupyterLab</text><text fill="#00AA00" font-family="sans-serif" font-size="14" lengthAdjust="spacing" textLength="50.4902" x="769.64" y="123.4634">Testing</text><text fill="#00AA00" font-family="sans-serif" font-size="14" lengthAdjust="spacing" textLength="82.7109" x="769.64" y="139.9517">&#9989; SUCCESS</text></g><!--entity ManualStep2--><g class="entity" data-entity="ManualStep2" data-source-line="31" data-uid="ent0014" id="entity_ManualStep2"><rect fill="#E6FFE6" height="69.4648" rx="2.5" ry="2.5" style="stroke:#00AA00;stroke-width:0.5;" width="102.7422" x="619.63" y="290.35"/><text fill="#00AA00" font-family="sans-serif" font-size="14" lengthAdjust="spacing" textLength="79.3926" x="629.63" y="313.8852">Manual URL</text><text fill="#00AA00" font-family="sans-serif" font-size="14" lengthAdjust="spacing" textLength="68.2295" x="629.63" y="330.3734">Copy Step</text><text fill="#00AA00" font-family="sans-serif" font-size="14" lengthAdjust="spacing" textLength="82.7422" x="629.63" y="346.8617">(Temporary)</text></g><g class="entity" data-entity="ComparisonNote" data-source-line="39" data-uid="ent0018" id="entity_ComparisonNote"><path d="M897.17,6 L897.17,230.3477 L1142.8209,230.3477 L1142.8209,16 L1132.8209,6 L897.17,6" fill="#FEFFDD" style="stroke:#181818;stroke-width:0.5;"/><path d="M1132.8209,6 L1132.8209,16 L1142.8209,16 L1132.8209,6" fill="#FEFFDD" style="stroke:#181818;stroke-width:1;"/><text fill="#000000" font-family="sans-serif" font-size="13" lengthAdjust="spacing" textLength="135.9478" x="903.17" y="23.5684">Solution Comparison:</text><text fill="#000000" font-family="sans-serif" font-size="13" lengthAdjust="spacing" textLength="4.1133" x="903.17" y="38.8789">&#160;</text><text fill="#000000" font-family="sans-serif" font-size="13" lengthAdjust="spacing" textLength="107.6436" x="903.17" y="54.1895">ADAM Approach:</text><text fill="#000000" font-family="sans-serif" font-size="13" lengthAdjust="spacing" textLength="152.5352" x="903.17" y="69.5">&#10060; External dependency</text><text fill="#000000" font-family="sans-serif" font-size="13" lengthAdjust="spacing" textLength="168.6836" x="903.17" y="84.8105">&#10060; Token length limitation</text><text fill="#000000" font-family="sans-serif" font-size="13" lengthAdjust="spacing" textLength="155.4868" x="903.17" y="100.1211">&#10060; Unknown fix timeline</text><text fill="#000000" font-family="sans-serif" font-size="13" lengthAdjust="spacing" textLength="146.6763" x="903.17" y="115.4316">&#10060; Project timeline risk</text><text fill="#000000" font-family="sans-serif" font-size="13" lengthAdjust="spacing" textLength="4.1133" x="903.17" y="130.7422">&#160;</text><text fill="#000000" font-family="sans-serif" font-size="13" lengthAdjust="spacing" textLength="101.2832" x="903.17" y="146.0527">Local Approach:</text><text fill="#000000" font-family="sans-serif" font-size="13" lengthAdjust="spacing" textLength="168.6455" x="903.17" y="161.3633">&#9989; Self-contained solution</text><text fill="#000000" font-family="sans-serif" font-size="13" lengthAdjust="spacing" textLength="149.4375" x="903.17" y="176.6738">&#9989; No token limitations</text><text fill="#000000" font-family="sans-serif" font-size="13" lengthAdjust="spacing" textLength="190.9512" x="903.17" y="191.9844">&#9989; Immediate implementation</text><text fill="#000000" font-family="sans-serif" font-size="13" lengthAdjust="spacing" textLength="181.6138" x="903.17" y="207.2949">&#9989; 95% automation achieved</text><text fill="#000000" font-family="sans-serif" font-size="13" lengthAdjust="spacing" textLength="224.6509" x="903.17" y="222.6055">&#9989; Code reviewed (CR-210612679)</text></g><!--link SageMaker1 to URL1--><g class="link" data-entity-1="SageMaker1" data-entity-2="URL1" data-source-line="16" data-uid="lnk7" id="link_SageMaker1_URL1"><path d="M136.08,118.17 C147.32,118.17 152.56,118.17 163.8,118.17" fill="none" id="SageMaker1-to-URL1" style="stroke:#181818;stroke-width:1;"/><polygon fill="#181818" points="169.8,118.17,160.8,114.17,164.8,118.17,160.8,122.17,169.8,118.17" style="stroke:#181818;stroke-width:1;"/></g><!--link URL1 to ADAM--><g class="link" data-entity-1="URL1" data-entity-2="ADAM" data-source-line="17" data-uid="lnk8" id="link_URL1_ADAM"><path d="M294.16,118.17 C305.63,118.17 311.09,118.17 322.55,118.17" fill="none" id="URL1-to-ADAM" style="stroke:#181818;stroke-width:1;"/><polygon fill="#181818" points="328.55,118.17,319.55,114.17,323.55,118.17,319.55,122.17,328.55,118.17" style="stroke:#181818;stroke-width:1;"/></g><!--link URL1 to Limit--><g class="link" data-entity-1="URL1" data-entity-2="Limit" data-source-line="18" data-uid="lnk9" id="link_URL1_Limit"><path d="M232,153.01 C232,190.86 232,245.84 232,283.85" fill="none" id="URL1-to-Limit" style="stroke:#181818;stroke-width:1;"/><polygon fill="#181818" points="232,289.85,236,280.85,232,284.85,228,280.85,232,289.85" style="stroke:#181818;stroke-width:1;"/></g><!--link LocalSetup2 to BrowserUse2--><g class="link" data-entity-1="LocalSetup2" data-entity-2="BrowserUse2" data-source-line="33" data-uid="lnk15" id="link_LocalSetup2_BrowserUse2"><path d="M583.13,118.17 C594.57,118.17 600.01,118.17 611.46,118.17" fill="none" id="LocalSetup2-to-BrowserUse2" style="stroke:#181818;stroke-width:1;"/><polygon fill="#181818" points="617.46,118.17,608.46,114.17,612.46,118.17,608.46,122.17,617.46,118.17" style="stroke:#181818;stroke-width:1;"/></g><!--link BrowserUse2 to JupyterLab2--><g class="link" data-entity-1="BrowserUse2" data-entity-2="JupyterLab2" data-source-line="34" data-uid="lnk16" id="link_BrowserUse2_JupyterLab2"><path d="M724.59,118.17 C736.18,118.17 741.77,118.17 753.36,118.17" fill="none" id="BrowserUse2-to-JupyterLab2" style="stroke:#181818;stroke-width:1;"/><polygon fill="#181818" points="759.36,118.17,750.36,114.17,754.36,118.17,750.36,122.17,759.36,118.17" style="stroke:#181818;stroke-width:1;"/></g><!--link BrowserUse2 to ManualStep2--><g class="link" data-entity-1="BrowserUse2" data-entity-2="ManualStep2" data-source-line="35" data-uid="lnk17" id="link_BrowserUse2_ManualStep2"><path d="M671,153.01 C671,190.86 671,245.84 671,283.85" fill="none" id="BrowserUse2-to-ManualStep2" style="stroke:#181818;stroke-width:1;"/><polygon fill="#181818" points="671,289.85,675,280.85,671,284.85,667,280.85,671,289.85" style="stroke:#181818;stroke-width:1;"/></g><!--SRC=[dLJDRfj04Bxp52jNbPo39STgN2M7IfYIoXLEen2h5ovhc90jC8jsbyHMbTnwwoEqBzSdwUpY0BLpwXx0p3T_ttopreN0cYjUiGrFYrp91hD0bbAnDvVkU5vD0C-1ZVoF_eh5icoCaCZ6YrAc1MGd8_RTOtHqbqf1QZZc9UmHUnR7wSDvEEzngJ9GUom8fdGwx5AYEKQUtDCz-eAZc5fTyG9KWh5fCY6PdwQWzOXnpJhmz33iMe4MEKB6rZTHWfy0GN7BCy7nyxkpwPGPMG3g4vU7V8uosEaaUAsahIOmJ_3Fxv_iqbz6wvlGHLcFmwWeMh60wC7M91Y9Ij0htAO06MGkoDbwfZq3Db4YlpUJ3tqtzaTlxigrvam-8bdRV4y3MIEPydAWwxAgIwY0UlflRSEvLVTrRQTJttzTsm7okhRxJi4qTO9-OsJr8j4NX4bGYhHezN6Epczsc6EXvAC6DLbhIF0hRDXwcU2IoEQjtYv-xqG-H_6VctfdG4Lya-0jQDCg_Ui7YzT14CQnY- -TZk9N71iYuROiaFMEnGQ8pVWMgbeghdOjWzRDOhD-50DQlSo7lGw-UwV3Xlvnsc_6i2Jj1qe3jfD0LgIyq1AloE9rUzBRBppF_JNuTQqaJ-ylFBlvuPOA8b7De0RC0DETiz_QUyHAmDpSiz9kevkxmzPO83N3xiIM6L51AH0SGDVg6ysmCp8gN7XUkn23kbO7AEycAMqL5_Owwts_3hkIxJKUrDKEM5OLP88JO_6o_RoBEZzxotYtROmg2NY0p661pAWPU13mICN6mSraTZgTdyxcxyzFFABDx1Yzlm00]--></g></svg>