<svg xmlns="http://www.w3.org/2000/svg" xmlns:xlink="http://www.w3.org/1999/xlink" contentStyleType="text/css" data-diagram-type="ACTIVITY" height="554px" preserveAspectRatio="none" style="width:584px;height:554px;background:#FFFFFF;" version="1.1" viewBox="0 0 584 554" width="584px" zoomAndPan="magnify"><defs/><g><ellipse cx="276.4375" cy="20" fill="#222222" rx="10" ry="10" style="stroke:#222222;stroke-width:1;"/><path d="M370.958,40 L370.958,63.9658 L350.958,67.9658 L370.958,71.9658 L370.958,95.9316 A0,0 0 0 0 370.958,95.9316 L559.9487,95.9316 A0,0 0 0 0 559.9487,95.9316 L559.9487,50 L549.9487,40 L370.958,40 A0,0 0 0 0 370.958,40" fill="#FEFFDD" style="stroke:#181818;stroke-width:0.5;"/><path d="M549.9487,40 L549.9487,50 L559.9487,50 L549.9487,40" fill="#FEFFDD" style="stroke:#181818;stroke-width:0.5;"/><text fill="#000000" font-family="sans-serif" font-size="13" lengthAdjust="spacing" textLength="167.9907" x="376.958" y="57.5684">Environment configuration</text><text fill="#000000" font-family="sans-serif" font-size="13" lengthAdjust="spacing" textLength="151.3916" x="376.958" y="72.8789">Dependency installation</text><text fill="#000000" font-family="sans-serif" font-size="13" lengthAdjust="spacing" textLength="167.0068" x="376.958" y="88.1895">Browser-Use Web UI setup</text><rect fill="#E8F4FD" height="34.1328" rx="12.5" ry="12.5" style="stroke:#2E86AB;stroke-width:0.5;" width="149.041" x="201.917" y="50.8994"/><text fill="#2E86AB" font-family="sans-serif" font-size="12" lengthAdjust="spacing" textLength="129.041" x="211.917" y="72.501">One-Click Local Setup</text><path d="M365.8516,119.7539 L365.8516,136.0645 L345.8516,140.0645 L365.8516,144.0645 L365.8516,160.375 A0,0 0 0 0 365.8516,160.375 L537.291,160.375 A0,0 0 0 0 537.291,160.375 L537.291,129.7539 L527.291,119.7539 L365.8516,119.7539 A0,0 0 0 0 365.8516,119.7539" fill="#FEFFDD" style="stroke:#181818;stroke-width:0.5;"/><path d="M527.291,119.7539 L527.291,129.7539 L537.291,129.7539 L527.291,119.7539" fill="#FEFFDD" style="stroke:#181818;stroke-width:0.5;"/><text fill="#000000" font-family="sans-serif" font-size="13" lengthAdjust="spacing" textLength="131.8154" x="371.8516" y="137.3223">~4500 tokens length</text><text fill="#000000" font-family="sans-serif" font-size="13" lengthAdjust="spacing" textLength="150.4395" x="371.8516" y="152.6328">Authentication included</text><rect fill="#E8F4FD" height="48.2656" rx="12.5" ry="12.5" style="stroke:#2E86AB;stroke-width:0.5;" width="138.8281" x="207.0234" y="115.9316"/><text fill="#2E86AB" font-family="sans-serif" font-size="12" lengthAdjust="spacing" textLength="118.8281" x="217.0234" y="137.5332">Generate SageMaker</text><text fill="#2E86AB" font-family="sans-serif" font-size="12" lengthAdjust="spacing" textLength="83.0801" x="217.0234" y="151.666">Presigned URL</text><path d="M368.6758,180.3643 L368.6758,204.3301 L348.6758,208.3301 L368.6758,212.3301 L368.6758,236.2959 A0,0 0 0 0 368.6758,236.2959 L572.6279,236.2959 A0,0 0 0 0 572.6279,236.2959 L572.6279,190.3643 L562.6279,180.3643 L368.6758,180.3643 A0,0 0 0 0 368.6758,180.3643" fill="#FEFFDD" style="stroke:#181818;stroke-width:0.5;"/><path d="M562.6279,180.3643 L562.6279,190.3643 L572.6279,190.3643 L562.6279,180.3643" fill="#FEFFDD" style="stroke:#181818;stroke-width:0.5;"/><text fill="#000000" font-family="sans-serif" font-size="13" lengthAdjust="spacing" textLength="119.3994" x="374.6758" y="197.9326">Current Limitation:</text><text fill="#000000" font-family="sans-serif" font-size="13" lengthAdjust="spacing" textLength="182.9521" x="374.6758" y="213.2432">Manual intervention required</text><text fill="#000000" font-family="sans-serif" font-size="13" lengthAdjust="spacing" textLength="104.8252" x="374.6758" y="228.5537">for URL injection</text><rect fill="#E8F4FD" height="48.2656" rx="12.5" ry="12.5" style="stroke:#2E86AB;stroke-width:0.5;" width="144.4766" x="204.1992" y="184.1973"/><text fill="#2E86AB" font-family="sans-serif" font-size="12" lengthAdjust="spacing" textLength="104.2324" x="214.1992" y="205.7988">Manual Copy Step</text><text fill="#2E86AB" font-family="sans-serif" font-size="12" lengthAdjust="spacing" textLength="124.4766" x="214.1992" y="219.9316">(CMD &#8594; Address Bar)</text><path d="M365.4736,252.4629 L365.4736,276.4287 L345.4736,280.4287 L365.4736,284.4287 L365.4736,308.3945 A0,0 0 0 0 365.4736,308.3945 L564.6396,308.3945 A0,0 0 0 0 564.6396,308.3945 L564.6396,262.4629 L554.6396,252.4629 L365.4736,252.4629 A0,0 0 0 0 365.4736,252.4629" fill="#FEFFDD" style="stroke:#181818;stroke-width:0.5;"/><path d="M554.6396,252.4629 L554.6396,262.4629 L564.6396,262.4629 L554.6396,252.4629" fill="#FEFFDD" style="stroke:#181818;stroke-width:0.5;"/><text fill="#000000" font-family="sans-serif" font-size="13" lengthAdjust="spacing" textLength="178.166" x="371.4736" y="270.0313">Load automation framework</text><text fill="#000000" font-family="sans-serif" font-size="13" lengthAdjust="spacing" textLength="171.3931" x="371.4736" y="285.3418">Configure browser settings</text><text fill="#000000" font-family="sans-serif" font-size="13" lengthAdjust="spacing" textLength="158.9707" x="371.4736" y="300.6523">Prepare test environment</text><rect fill="#E8F4FD" height="48.2656" rx="12.5" ry="12.5" style="stroke:#2E86AB;stroke-width:0.5;" width="138.0723" x="207.4014" y="256.2959"/><text fill="#2E86AB" font-family="sans-serif" font-size="12" lengthAdjust="spacing" textLength="118.0723" x="217.4014" y="277.8975">Browser-Use Web UI</text><text fill="#2E86AB" font-family="sans-serif" font-size="12" lengthAdjust="spacing" textLength="72.1758" x="217.4014" y="292.0303">Initialization</text><path d="M361.8262,324.5615 L361.8262,348.5273 L341.8262,352.5273 L361.8262,356.5273 L361.8262,380.4932 A0,0 0 0 0 361.8262,380.4932 L528.1621,380.4932 A0,0 0 0 0 528.1621,380.4932 L528.1621,334.5615 L518.1621,324.5615 L361.8262,324.5615 A0,0 0 0 0 361.8262,324.5615" fill="#FEFFDD" style="stroke:#181818;stroke-width:0.5;"/><path d="M518.1621,324.5615 L518.1621,334.5615 L528.1621,334.5615 L518.1621,324.5615" fill="#FEFFDD" style="stroke:#181818;stroke-width:0.5;"/><text fill="#000000" font-family="sans-serif" font-size="13" lengthAdjust="spacing" textLength="142.5366" x="367.8262" y="342.1299">Navigate to JupyterLab</text><text fill="#000000" font-family="sans-serif" font-size="13" lengthAdjust="spacing" textLength="145.3359" x="367.8262" y="357.4404">Perform UI interactions</text><text fill="#000000" font-family="sans-serif" font-size="13" lengthAdjust="spacing" textLength="141.9463" x="367.8262" y="372.751">Validate test scenarios</text><rect fill="#E8F4FD" height="48.2656" rx="12.5" ry="12.5" style="stroke:#2E86AB;stroke-width:0.5;" width="130.7773" x="211.0488" y="328.3945"/><text fill="#2E86AB" font-family="sans-serif" font-size="12" lengthAdjust="spacing" textLength="110.7773" x="221.0488" y="349.9961">Execute JupyterLab</text><text fill="#2E86AB" font-family="sans-serif" font-size="12" lengthAdjust="spacing" textLength="83.7598" x="221.0488" y="364.1289">UI Automation</text><path d="M369.7305,390.4932 L369.7305,414.459 L349.7305,418.459 L369.7305,422.459 L369.7305,446.4248 A0,0 0 0 0 369.7305,446.4248 L549.4917,446.4248 A0,0 0 0 0 549.4917,446.4248 L549.4917,400.4932 L539.4917,390.4932 L369.7305,390.4932 A0,0 0 0 0 369.7305,390.4932" fill="#FEFFDD" style="stroke:#181818;stroke-width:0.5;"/><path d="M539.4917,390.4932 L539.4917,400.4932 L549.4917,400.4932 L539.4917,390.4932" fill="#FEFFDD" style="stroke:#181818;stroke-width:0.5;"/><text fill="#000000" font-family="sans-serif" font-size="13" lengthAdjust="spacing" textLength="158.7612" x="375.7305" y="408.0615">Success/failure reporting</text><text fill="#000000" font-family="sans-serif" font-size="13" lengthAdjust="spacing" textLength="120.7007" x="375.7305" y="423.3721">Screenshot capture</text><text fill="#000000" font-family="sans-serif" font-size="13" lengthAdjust="spacing" textLength="94.9673" x="375.7305" y="438.6826">Log generation</text><rect fill="#E8F4FD" height="34.1328" rx="12.5" ry="12.5" style="stroke:#2E86AB;stroke-width:0.5;" width="146.5859" x="203.1445" y="401.3926"/><text fill="#2E86AB" font-family="sans-serif" font-size="12" lengthAdjust="spacing" textLength="126.5859" x="213.1445" y="422.9941">Generate Test Results</text><path d="M10,456.4248 L10,542.9775 L245.4375,542.9775 L245.4375,466.4248 L235.4375,456.4248 L10,456.4248" fill="#FEFFDD" style="stroke:#181818;stroke-width:0.5;"/><path d="M235.4375,456.4248 L235.4375,466.4248 L245.4375,466.4248 L235.4375,456.4248" fill="#FEFFDD" style="stroke:#181818;stroke-width:0.5;"/><text fill="#000000" font-family="sans-serif" font-size="13" lengthAdjust="spacing" textLength="121.0244" x="16" y="473.9932">Key Improvements:</text><text fill="#000000" font-family="sans-serif" font-size="13" lengthAdjust="spacing" textLength="181.6138" x="16" y="489.3037">&#9989; 95% automation achieved</text><text fill="#000000" font-family="sans-serif" font-size="13" lengthAdjust="spacing" textLength="210.064" x="16" y="504.6143">&#9989; Eliminated ADAM dependency</text><text fill="#000000" font-family="sans-serif" font-size="13" lengthAdjust="spacing" textLength="214.4375" x="16" y="519.9248">&#9989; Restored development velocity</text><text fill="#000000" font-family="sans-serif" font-size="13" lengthAdjust="spacing" textLength="200.77" x="16" y="535.2354">&#9888;&#65039; Single manual step remains</text><ellipse cx="276.4375" cy="499.7012" fill="none" rx="11" ry="11" style="stroke:#222222;stroke-width:1;"/><ellipse cx="276.4375" cy="499.7012" fill="#222222" rx="6" ry="6" style="stroke:#222222;stroke-width:1;"/><line style="stroke:#2E86AB;stroke-width:1;" x1="276.4375" x2="276.4375" y1="30" y2="50.8994"/><polygon fill="#2E86AB" points="272.4375,40.8994,276.4375,50.8994,280.4375,40.8994,276.4375,44.8994" style="stroke:#2E86AB;stroke-width:1;"/><line style="stroke:#2E86AB;stroke-width:1;" x1="276.4375" x2="276.4375" y1="85.0322" y2="115.9316"/><polygon fill="#2E86AB" points="272.4375,105.9316,276.4375,115.9316,280.4375,105.9316,276.4375,109.9316" style="stroke:#2E86AB;stroke-width:1;"/><line style="stroke:#2E86AB;stroke-width:1;" x1="276.4375" x2="276.4375" y1="164.1973" y2="184.1973"/><polygon fill="#2E86AB" points="272.4375,174.1973,276.4375,184.1973,280.4375,174.1973,276.4375,178.1973" style="stroke:#2E86AB;stroke-width:1;"/><line style="stroke:#2E86AB;stroke-width:1;" x1="276.4375" x2="276.4375" y1="232.4629" y2="256.2959"/><polygon fill="#2E86AB" points="272.4375,246.2959,276.4375,256.2959,280.4375,246.2959,276.4375,250.2959" style="stroke:#2E86AB;stroke-width:1;"/><line style="stroke:#2E86AB;stroke-width:1;" x1="276.4375" x2="276.4375" y1="304.5615" y2="328.3945"/><polygon fill="#2E86AB" points="272.4375,318.3945,276.4375,328.3945,280.4375,318.3945,276.4375,322.3945" style="stroke:#2E86AB;stroke-width:1;"/><line style="stroke:#2E86AB;stroke-width:1;" x1="276.4375" x2="276.4375" y1="376.6602" y2="401.3926"/><polygon fill="#2E86AB" points="272.4375,391.3926,276.4375,401.3926,280.4375,391.3926,276.4375,395.3926" style="stroke:#2E86AB;stroke-width:1;"/><line style="stroke:#2E86AB;stroke-width:1;" x1="276.4375" x2="276.4375" y1="435.5254" y2="488.7012"/><polygon fill="#2E86AB" points="272.4375,478.7012,276.4375,488.7012,280.4375,478.7012,276.4375,482.7012" style="stroke:#2E86AB;stroke-width:1;"/><!--SRC=[ZLFDRXCn4BxxAKP2I72eg52BIZcb-K651Ag6mYKNnplPc7Z7YptU4X3Su8h44N7WCNYUlW2lm7WJjLdWm9vMC_RtCzyuhYpLEkWAvjgiok0J5NtlV81Re_PJyVg4DcmRosjuhq2-apyl38z61wF1fkT3WM5RlpyyUj0xQUiZJzojVb2x327uooty_rvc7LYfu-U4UtrdpGh6tcW7K-HKFrBa6I7OSibgI8qDdYea1kDfOSiKD5jFQe0rKe5arc1909tRr4z4JSImTn4HNk4SBauXPbWbfo4Z2-zZ91GOXAakSQ9N66Pq5Z3Qah20Y_DnHyF7WyFzVM2_GehWa4fUgbxYfMYofYKL1SQb0ejTaecc99xwlbx3bB6UqPt-P01Ndxz2hoY4BKeQuMw7gfz2o5R7jhBSGX-hBOubnj1aJk4B-2RP87mB6QpebUvhDAt_7GL_Zs96fsJPQcVVjUWTyh7N1UZ4ljgOMaYwUEd3IlMtaqUORo3pIDbI6PMCJTO0WJ4ou4rQkpg6Rz4aeNcIwhMO6ElvZ2IMtZLLHyOptTWoXyD-vuOwmo1cgvndEmhTsetgfPWfskDPGJH8EbWV_ndtYtpa76Do73kSqsIC179leQtBDiMK3zcWcfg0allIo_xfcgKfSogXt41s1nxPrqejdDVvQbkKVLcmUefhEAtgu1lCiud7wkhx9tXuU7jttDeiBJQIQUuDdMm0YUO2UeFU18hhRM_Rue6zv2_r1fsls_UH_umyTNNrxSUldrzWAY8SGhNPdoWhABugBQ_bHlDl]--></g></svg>