<svg xmlns="http://www.w3.org/2000/svg" xmlns:xlink="http://www.w3.org/1999/xlink" contentStyleType="text/css" data-diagram-type="DESCRIPTION" height="302px" preserveAspectRatio="none" style="width:1076px;height:302px;background:#FFFFFF;" version="1.1" viewBox="0 0 1076 302" width="1076px" zoomAndPan="magnify"><defs/><g><!--entity LocalSetup--><g class="entity" data-entity="LocalSetup" data-source-line="16" data-uid="ent0002" id="entity_LocalSetup"><rect fill="#E8F4FD" height="62.3984" rx="2.5" ry="2.5" style="stroke:#2E86AB;stroke-width:0.5;" width="88.1914" x="63.5" y="82.94"/><text fill="#2E86AB" font-family="sans-serif" font-size="12" lengthAdjust="spacing" textLength="66.4453" x="73.5" y="104.5416">Local Setup</text><text fill="#2E86AB" font-family="sans-serif" font-size="12" lengthAdjust="spacing" textLength="68.1914" x="73.5" y="118.6744">Automation</text><text fill="#2E86AB" font-family="sans-serif" font-size="12" lengthAdjust="spacing" textLength="66.6035" x="73.5" y="132.8072">(One-Click)</text></g><g class="entity" data-entity="GMN3" data-source-line="17" data-uid="ent0004" id="entity_GMN3"><path d="M6,237.64 L6,293.5716 A0,0 0 0 0 6,293.5716 L189.1953,293.5716 A0,0 0 0 0 189.1953,293.5716 L189.1953,247.64 L179.1953,237.64 L103.41,237.64 L105.55,145.74 L95.41,237.64 L6,237.64 A0,0 0 0 0 6,237.64" fill="#FEFFDD" style="stroke:#181818;stroke-width:0.5;"/><path d="M179.1953,237.64 L179.1953,247.64 L189.1953,247.64 L179.1953,237.64" fill="#FEFFDD" style="stroke:#181818;stroke-width:0.5;"/><text fill="#000000" font-family="sans-serif" font-size="13" lengthAdjust="spacing" textLength="144.9551" x="12" y="255.2084">One-click environment</text><text fill="#000000" font-family="sans-serif" font-size="13" lengthAdjust="spacing" textLength="112.1377" x="12" y="270.5189">configuration and</text><text fill="#000000" font-family="sans-serif" font-size="13" lengthAdjust="spacing" textLength="162.1953" x="12" y="285.8295">dependency management</text></g><!--entity BrowserUse--><g class="entity" data-entity="BrowserUse" data-source-line="19" data-uid="ent0006" id="entity_BrowserUse"><rect fill="#E8F4FD" height="62.3984" rx="2.5" ry="2.5" style="stroke:#2E86AB;stroke-width:0.5;" width="94.2031" x="266.5" y="82.94"/><text fill="#2E86AB" font-family="sans-serif" font-size="12" lengthAdjust="spacing" textLength="74.2031" x="276.5" y="104.5416">Browser-Use</text><text fill="#2E86AB" font-family="sans-serif" font-size="12" lengthAdjust="spacing" textLength="40.0723" x="276.5" y="118.6744">Web UI</text><text fill="#2E86AB" font-family="sans-serif" font-size="12" lengthAdjust="spacing" textLength="63.873" x="276.5" y="132.8072">Integration</text></g><g class="entity" data-entity="GMN7" data-source-line="20" data-uid="ent0008" id="entity_GMN7"><path d="M224.21,237.64 L224.21,293.5716 A0,0 0 0 0 224.21,293.5716 L388.9844,293.5716 A0,0 0 0 0 388.9844,293.5716 L388.9844,247.64 L378.9844,237.64 L311.86,237.64 L312.16,145.74 L303.86,237.64 L224.21,237.64 A0,0 0 0 0 224.21,237.64" fill="#FEFFDD" style="stroke:#181818;stroke-width:0.5;"/><path d="M378.9844,237.64 L378.9844,247.64 L388.9844,247.64 L378.9844,237.64" fill="#FEFFDD" style="stroke:#181818;stroke-width:0.5;"/><text fill="#000000" font-family="sans-serif" font-size="13" lengthAdjust="spacing" textLength="137.8203" x="230.21" y="255.2084">Open-source browser</text><text fill="#000000" font-family="sans-serif" font-size="13" lengthAdjust="spacing" textLength="143.7744" x="230.21" y="270.5189">automation framework</text><text fill="#000000" font-family="sans-serif" font-size="13" lengthAdjust="spacing" textLength="69.2085" x="230.21" y="285.8295">integration</text></g><!--entity JupyterLab--><g class="entity" data-entity="JupyterLab" data-source-line="22" data-uid="ent0010" id="entity_JupyterLab"><rect fill="#E8F4FD" height="62.3984" rx="2.5" ry="2.5" style="stroke:#2E86AB;stroke-width:0.5;" width="90.6094" x="578.29" y="82.94"/><text fill="#2E86AB" font-family="sans-serif" font-size="12" lengthAdjust="spacing" textLength="61.6641" x="588.29" y="104.5416">JupyterLab</text><text fill="#2E86AB" font-family="sans-serif" font-size="12" lengthAdjust="spacing" textLength="43.2773" x="588.29" y="118.6744">Testing</text><text fill="#2E86AB" font-family="sans-serif" font-size="12" lengthAdjust="spacing" textLength="70.6094" x="588.29" y="132.8072">&#9989; SUCCESS</text></g><g class="entity" data-entity="GMN11" data-source-line="23" data-uid="ent0012" id="entity_GMN11"><path d="M550.1,245.3 L550.1,285.9211 A0,0 0 0 0 550.1,285.9211 L705.0927,285.9211 A0,0 0 0 0 705.0927,285.9211 L705.0927,255.3 L695.0927,245.3 L631.07,245.3 L624.42,145.74 L623.07,245.3 L550.1,245.3 A0,0 0 0 0 550.1,245.3" fill="#FEFFDD" style="stroke:#181818;stroke-width:0.5;"/><path d="M695.0927,245.3 L695.0927,255.3 L705.0927,255.3 L695.0927,245.3" fill="#FEFFDD" style="stroke:#181818;stroke-width:0.5;"/><text fill="#000000" font-family="sans-serif" font-size="13" lengthAdjust="spacing" textLength="133.9927" x="556.1" y="262.8684">Automated UI testing</text><text fill="#000000" font-family="sans-serif" font-size="13" lengthAdjust="spacing" textLength="133.8911" x="556.1" y="278.1789">with full functionality</text></g><!--entity ManualStep--><g class="entity" data-entity="ManualStep" data-source-line="25" data-uid="ent0014" id="entity_ManualStep"><rect fill="#E8F4FD" height="62.3984" rx="2.5" ry="2.5" style="stroke:#2E86AB;stroke-width:0.5;" width="90.9219" x="424.14" y="234.41"/><text fill="#2E86AB" font-family="sans-serif" font-size="12" lengthAdjust="spacing" textLength="68.0508" x="434.14" y="256.0116">Manual URL</text><text fill="#2E86AB" font-family="sans-serif" font-size="12" lengthAdjust="spacing" textLength="58.4824" x="434.14" y="270.1444">Copy Step</text><text fill="#2E86AB" font-family="sans-serif" font-size="12" lengthAdjust="spacing" textLength="70.9219" x="434.14" y="284.2772">(Temporary)</text></g><g class="entity" data-entity="GMN15" data-source-line="26" data-uid="ent0016" id="entity_GMN15"><path d="M395.56,86.17 L395.56,142.1016 A0,0 0 0 0 395.56,142.1016 L465.6,142.1016 L469.6,234.02 L473.6,142.1016 L543.6274,142.1016 A0,0 0 0 0 543.6274,142.1016 L543.6274,96.17 L533.6274,86.17 L395.56,86.17 A0,0 0 0 0 395.56,86.17" fill="#FEFFDD" style="stroke:#181818;stroke-width:0.5;"/><path d="M533.6274,86.17 L533.6274,96.17 L543.6274,96.17 L533.6274,86.17" fill="#FEFFDD" style="stroke:#181818;stroke-width:0.5;"/><text fill="#000000" font-family="sans-serif" font-size="13" lengthAdjust="spacing" textLength="127.0674" x="401.56" y="103.7384">Copy presigned URL</text><text fill="#000000" font-family="sans-serif" font-size="13" lengthAdjust="spacing" textLength="112.8931" x="401.56" y="119.0489">to address bar via</text><text fill="#000000" font-family="sans-serif" font-size="13" lengthAdjust="spacing" textLength="89.2861" x="401.56" y="134.3595">command line</text></g><g class="entity" data-entity="N1" data-source-line="33" data-uid="ent0021" id="entity_N1"><path d="M703.91,70.86 L703.91,157.4127 L1069.2767,157.4127 L1069.2767,80.86 L1059.2767,70.86 L703.91,70.86" fill="#FEFFDD" style="stroke:#181818;stroke-width:0.5;"/><path d="M1059.2767,70.86 L1059.2767,80.86 L1069.2767,80.86 L1059.2767,70.86" fill="#FEFFDD" style="stroke:#181818;stroke-width:1;"/><text fill="#000000" font-family="sans-serif" font-size="13" lengthAdjust="spacing" textLength="157.5107" x="709.91" y="88.4284">Implementation Benefits:</text><text fill="#000000" font-family="sans-serif" font-size="13" lengthAdjust="spacing" textLength="344.3667" x="709.91" y="103.7389">&#8226; Timeline Recovery: Eliminated 2-8 week dependency</text><text fill="#000000" font-family="sans-serif" font-size="13" lengthAdjust="spacing" textLength="310.1719" x="709.91" y="119.0495">&#8226; Development Unblocking: Restored full velocity</text><text fill="#000000" font-family="sans-serif" font-size="13" lengthAdjust="spacing" textLength="275.9517" x="709.91" y="134.36">&#8226; Testing Capability: Immediate automation</text><text fill="#000000" font-family="sans-serif" font-size="13" lengthAdjust="spacing" textLength="315.5166" x="709.91" y="149.6705">&#8226; Code Quality: Peer-reviewed via CR-210612679</text></g><!--link LocalSetup to BrowserUse--><g class="link" data-entity-1="LocalSetup" data-entity-2="BrowserUse" data-source-line="28" data-uid="lnk18" id="link_LocalSetup_BrowserUse"><path d="M152.04,114.14 C185.63,114.14 225.67,114.14 260,114.14" fill="none" id="LocalSetup-to-BrowserUse" style="stroke:#2E86AB;stroke-width:1;"/><polygon fill="#2E86AB" points="266,114.14,257,110.14,261,114.14,257,118.14,266,114.14" style="stroke:#2E86AB;stroke-width:1;"/><text fill="#2E86AB" font-family="sans-serif" font-size="13" lengthAdjust="spacing" textLength="69.4878" x="174.59" y="92.7084">Automated</text><text fill="#2E86AB" font-family="sans-serif" font-size="13" lengthAdjust="spacing" textLength="35.3564" x="191.6557" y="108.0189">Setup</text></g><!--link BrowserUse to JupyterLab--><g class="link" data-entity-1="BrowserUse" data-entity-2="JupyterLab" data-source-line="29" data-uid="lnk19" id="link_BrowserUse_JupyterLab"><path d="M343.83,82.52 C378.89,49.87 439.05,6 495.1,23.74 C531.63,35.3 562.2512,57.4528 586.5212,78.6528" fill="none" id="BrowserUse-to-JupyterLab" style="stroke:#2E86AB;stroke-width:1;"/><polygon fill="#2E86AB" points="591.04,82.6,586.8933,73.6667,587.2743,79.3107,581.6303,79.6917,591.04,82.6" style="stroke:#2E86AB;stroke-width:1;"/><text fill="#2E86AB" font-family="sans-serif" font-size="13" lengthAdjust="spacing" textLength="49.0928" x="445.1" y="22.4284">Execute</text><text fill="#2E86AB" font-family="sans-serif" font-size="13" lengthAdjust="spacing" textLength="33.5791" x="452.8568" y="37.7389">Tests</text></g><!--link BrowserUse to ManualStep--><g class="link" data-entity-1="BrowserUse" data-entity-2="ManualStep" data-source-line="30" data-uid="lnk20" id="link_BrowserUse_ManualStep"><path d="M344.99,145.83 C362.72,163.11 385.32,185.04 405.6,204.41 C415.74,214.11 422.4851,220.5039 432.5751,229.9739" fill="none" id="BrowserUse-to-ManualStep" style="stroke:#2E86AB;stroke-width:1;"/><polygon fill="#2E86AB" points="436.95,234.08,433.125,225.0042,433.3042,230.6583,427.6502,230.8375,436.95,234.08" style="stroke:#2E86AB;stroke-width:1;"/><text fill="#2E86AB" font-family="sans-serif" font-size="13" lengthAdjust="spacing" textLength="54.6597" x="406.6" y="200.9784">Requires</text></g><!--SRC=[ZLCzZzD04EtzAqQcEGfB94BXI85qyILIKFYABw9nirbFVAlOisQzJZ3e91h-1HK_xNu9i-iGnoSAN6mnyzxCctdZUg-e4aQKi1LodnlTK1RhGXjujl1VK9yHKfUL9YIRsBP0C2YjeBp02yWv1jy3u6_sjEZyUl5oSTlbjCdGdEBZ-VNaPkRZ2qtstz54VKCOZOE7uAAbC4OVJ-t-fnYJUvNXIajHG8AsgLAwQQmkXLMQKhhwG1Z5XPBxvo686ZpGumBI5c6hBOD1xouoC0N7aeu5I0TbD9MyhvIafftA6-EBWw0ifGmhv8Ta2wKWaQD33hJDUB0QJRIfCQNFk8NDCgKbMSoxEbxN2SIOfxhwZDF5pQ9QDqOof4ka9CxpmevNYKTjzYcfliD0pjkcQYsQbTYcT8UrLPIdzFZh9oIRE9udYPVJWvxAwJCivxHfp7Wci7-B7PMzXrrJ5FoGT094eMmxKF5EKCEERTQhb69TjP1OPEkkxf2FqmZJTdPrC9VhT5XTEH5zc4LuUcMmLZav9QwarI2oZ6Cr_n063aeuyqfsA8D24GR1XTsHKVczZTuCLnsUXql9uyBW8d_c3FOHph-YR2nscws7Z4mVYGa3xU4QlpIATOP1Do3F_7uKBCkgy8VKkJf3mfsozJHu_F4RxbI9RWPOezG7DEqKveKg5NaZnj4r717tq1-cPztY0GjTkQAmeMsX9Vzw-PIBr5OR9dh374OwhtoZpb28HIMsobauXMLPOgQ4Ktg-EW-ETORmgH4Tx2FomHiyA3noQLu_nEjeF7en6Oqdhru7B0pSkC4V]--></g></svg>